<svg width="19" height="19" viewBox="0 0 19 19" fill="none" xmlns="http://www.w3.org/2000/svg">
<path d="M13.4688 0H6.34375C5.08736 0 3.96876 1.15248 3.96876 2.37501L3.28238 2.39104C2.02659 2.39104 1 3.52746 1 4.75V16.625C1 17.8476 2.11863 19 3.37501 19H12.2813C13.5376 19 14.6563 17.8476 14.6563 16.625H15.25C16.5064 16.625 17.625 15.4726 17.625 14.25V4.76426L13.4688 0ZM12.2813 17.8125H3.37501C2.75158 17.8125 2.18752 17.2301 2.18752 16.625V4.75C2.18752 4.14498 2.69518 3.58209 3.31862 3.58209L3.96876 3.56251V14.25C3.96876 15.4726 5.08736 16.625 6.34375 16.625H13.4688C13.4688 17.2301 12.9047 17.8125 12.2813 17.8125ZM16.4375 14.25C16.4375 14.855 15.8734 15.4375 15.25 15.4375H6.34375C5.72031 15.4375 5.15625 14.855 5.15625 14.25V2.37501C5.15625 1.76999 5.72031 1.18752 6.34375 1.18752H12.2813C12.2717 2.55493 12.2813 3.57737 12.2813 3.57737C12.2813 4.81118 13.3916 5.93752 14.6563 5.93752H16.4375V14.25ZM14.6563 4.75C14.0239 4.75 13.4688 3.60111 13.4688 2.98479V1.20472L16.4375 4.75H14.6563ZM13.4688 8.32321H8.12501C7.79727 8.32321 7.53127 8.58861 7.53127 8.91636C7.53127 9.24411 7.79727 9.50951 8.12501 9.50951H13.4688C13.7965 9.50951 14.0625 9.24408 14.0625 8.91636C14.0625 8.58861 13.7965 8.32321 13.4688 8.32321ZM13.4688 11.289H8.12501C7.79727 11.289 7.53127 11.5544 7.53127 11.8821C7.53127 12.2099 7.79727 12.4753 8.12501 12.4753H13.4688C13.7965 12.4753 14.0625 12.2099 14.0625 11.8821C14.0625 11.5544 13.7965 11.289 13.4688 11.289Z" fill="#404040"/>
</svg>
