<svg width="543" height="399" viewBox="0 0 543 399" fill="currentColor" xmlns="http://www.w3.org/2000/svg">
<g clip-path="url(#clip0_573_5519)">
<path d="M263.163 79.4157C262.669 78.6547 250.663 74.685 246.792 71.5998C228.053 56.7086 231.945 28.1395 252.558 16.8682C256.244 14.8526 266.726 13.0631 267.241 12.5284C267.9 11.8291 266.746 0.78402 267.282 0.228683C267.57 -0.05927 275.231 -0.05927 275.539 0.228683C276.157 0.845724 274.778 11.356 275.642 12.4667C275.91 12.8163 282.582 13.8653 284.333 14.5852C310.074 25.2189 316.601 56.7908 292.776 73.4715C289.563 75.734 278.773 79.2923 278.567 80.0327C278.196 81.4108 278.361 105.249 278.773 106.504C279.885 109.898 289.522 105.681 287.772 112.736C287.236 114.896 278.628 114.505 278.628 116.932V203.832H302.825C304.328 203.832 305.028 208.562 303.937 210.085C302.248 212.409 295.823 208.562 295.061 215.638C294.258 223.248 302.351 216.296 304.225 220.944C307.582 229.274 295.967 222.22 295.061 228.02C293.867 235.568 303.855 234.17 304.369 234.684C304.967 235.28 305.131 241.883 301.795 241.883H264.728C264.625 241.883 263.184 240.443 263.184 240.34V116.932C263.184 114.71 255.317 116.706 254.906 110.782C254.535 105.475 263.184 109.301 263.184 108.19C263.184 104.18 263.946 80.6086 263.184 79.3951L263.163 79.4157ZM266.252 75.3021C268.27 81.8427 266.046 108.067 267.282 109.239C267.385 109.342 270.247 109.342 270.371 109.239C271.647 108.026 270.906 75.5283 270.391 73.8417C270 72.5254 267.467 73.5332 266.252 73.2453C234.725 65.5939 234.024 27.8104 261.866 20.0151C263.369 19.6038 270.371 20.0974 267.261 16.6831C266.314 15.6342 254.885 20.0769 252.826 21.2698C228.258 35.6263 237.731 74.2531 266.252 75.3021ZM267.282 25.9387C265.593 24.1699 255.153 31.2864 253.464 33.1993C237.422 51.3609 262.731 77.5234 284.539 63.2081C297.265 54.8574 296.874 37.3334 284.106 29.1885C269.65 19.9329 276.116 34.639 274.489 36.2228C274.242 36.4696 267.529 36.4696 267.261 36.2228C266.788 35.7497 267.755 26.4529 267.261 25.9387H267.282ZM267.282 235.733C269.897 235.959 271.462 233.47 271.442 231.146V120.984C271.689 118.248 270.371 115.266 267.282 115.389V235.712V235.733Z" fill="currentColor"/>
<path d="M414.518 298.46V319.028C414.518 319.48 407.867 321.043 405.725 319.048C403.707 317.156 403.81 305.658 400.618 305.658H368.184V340.624H391.351C394.605 340.624 394.234 329.085 395.017 328.345C395.573 327.81 400.659 328.571 402.162 328.283V360.164C400.659 359.876 395.573 360.637 395.017 360.102C394.255 359.362 394.605 347.823 391.351 347.823H368.184V387.931H405.766C409.699 387.931 409.205 371.558 410.523 370.571C411.491 369.851 419.666 370.201 419.666 371.99V393.587C419.666 393.69 418.225 395.129 418.122 395.129H345.017C343.329 395.129 343.02 388.383 343.473 387.931C344.647 386.758 353.666 390.892 354.696 383.241C357.703 361.089 352.637 333.034 354.84 310.245C353.646 301.133 340.384 309.813 343.473 298.46H414.518Z" fill="currentColor"/>
<path d="M312.074 297.434C313.845 297.989 314.216 302.247 313.166 303.686C311.745 305.661 303.405 303.645 302.313 309.301C299.41 348.525 317.717 402.043 257.524 396.16C242.697 394.7 232.154 386.699 229.456 371.746C225.811 351.589 229.641 327.936 228.015 307.368C223.052 303.131 215.803 308.581 217.862 298.483H253.9C257.195 309.281 243.995 302 242.615 309.322C243.974 327.525 240.535 348.771 242.883 366.583C244.303 377.423 250.831 384.951 261.89 386.678C308.1 393.898 290.761 336.266 294.035 309.322C294.2 304.242 283.327 305.229 282.75 304.653C282.359 304.262 282.997 298.894 282.75 297.454C290.019 298.853 305.979 295.562 312.095 297.454L312.074 297.434Z" fill="currentColor"/>
<path d="M79.8871 390.507C78.8163 393.859 54.5168 397.027 50.5424 396.965C-15.9928 396.184 -19.3907 293.385 55.7318 296.346C59.1708 296.49 78.0338 299.534 79.4135 301.488C80.2166 302.64 80.2372 322.056 79.4135 323.208C78.4662 324.566 71.0734 324.504 70.6615 324.113C68.108 321.666 73.1739 310.23 62.3421 306.219C7.07106 285.713 -3.94607 391.494 55.7112 387.977C75.2743 386.825 65.431 375.78 71.094 368.396C72.659 366.36 79.8665 367.244 79.8665 368.931C79.8665 373.25 80.752 387.771 79.8665 390.527L79.8871 390.507Z" fill="currentColor"/>
<path d="M480.419 298.47C480.646 298.696 480.646 304.434 480.419 304.64C478.71 306.285 469.855 301.616 471.4 310.029C473.685 322.411 489.913 362.333 495.823 375.127C496.296 376.135 496.44 377.533 497.903 377.657L522.634 308.178C519.051 301.678 509.867 309.144 512.318 298.47H542.177C543.824 307.437 539.088 303.941 532.787 306.285L500.085 394.522C491.519 395.571 490.221 397.566 486.844 390.244C474.447 363.506 467.219 332.098 453.958 305.854C448.603 305.195 444.176 305.298 445.391 298.47C449.798 299.416 479.163 297.215 480.399 298.47H480.419Z" fill="currentColor"/>
<path d="M159.175 298.475C159.505 298.825 159.423 303.309 158.187 304.173C157.013 304.996 148.879 305.078 148.879 307.217V387.947H180.283C183.598 387.947 183.022 371.801 184.978 368.983C186.934 366.165 193.154 367.276 193.154 368.921V393.603C193.154 393.706 191.712 395.145 191.609 395.145H123.653C122.129 395.145 121.47 390.456 122.561 388.893C124.518 386.095 133.208 390.805 134.444 384.306L134.526 310.24C133.743 301.622 119.802 309.109 122.129 298.455C126.762 299.463 157.899 297.139 159.196 298.455L159.175 298.475Z" fill="currentColor"/>
</g>
<defs>
<clipPath id="clip0_573_5519">
<rect width="542.517" height="398.23" fill="currentColor"/>
</clipPath>
</defs>
</svg>
