<svg xmlns="http://www.w3.org/2000/svg" viewBox="0 0 280 80" fill="none" aria-hidden="true">
  <path d="M20 55c12-28 38-42 58-38 22 4 28 28 10 40-16 10-40 6-52-8" stroke="#1a1a1a" stroke-width="1.2" stroke-linecap="round"/>
  <path d="M95 48c8-18 28-26 45-22 14 3 20 16 12 26-10 12-32 14-48 4" stroke="#1a1a1a" stroke-width="1.2" stroke-linecap="round"/>
  <path d="M165 35c6 22 18 34 32 30 12-3 18-18 14-32" stroke="#1a1a1a" stroke-width="1.2" stroke-linecap="round"/>
  <path d="M225 42l-8 16M217 50h18" stroke="#1a1a1a" stroke-width="1" stroke-linecap="round"/>
</svg>
